<?xml version="1.0" encoding="UTF-8"?><svg id="_圖層_1" xmlns="http://www.w3.org/2000/svg" viewBox="0 0 839.28 738.05"><defs><style>.cls-1{fill:#144433;}</style></defs><path class="cls-1" d="m398.79,183.09c12.88,1.16,25.74,3.01,38.64,3.32,22.71.55,45.45.16,67.98.16,2.32-.23,4.44-.4,6.55-.65,7.12-.81,8.35-2.57,7.28-9.51-1.11-7.28-5.4-12.33-11.96-14.45-6.78-2.19-14.02-3.87-21.11-4.02-22.73-.51-45.5-.46-68.24-.06-5.78.11-11.77,1.68-17.22,3.73-6.15,2.31-8.82,7.68-8.46,14.31.22,4.13,2.18,6.77,6.54,7.17Z"/><path class="cls-1" d="m317.6,441.88c33.35,10.14,66.96,14.96,100.69,14.86,33.73.1,67.34-4.71,100.69-14.86,48.67-14.8,86.12-43.88,105-92.18,1.33-3.4,2.58-6.81,3.8-10.22-5.16,5.39-11.09,9.87-16.56,11.94-18.91,7.14-44.74,11.73-44.74,11.73-35.69,5.91-82.22,10.83-123.9,9.22-28.37-1.09-54.33-9.15-77.66-25.22-13.36-9.2-23.53-21.12-26.07-37.76-1.52-9.95-7.11-14.15-16.57-14.84-10.18-.74-20.33-2.09-30.5-2.61-19.98-1.03-39.96-1.53-59.93-2.54-4.4-.22-8.96-1.05-13.05-2.63-3.24-1.26-6.47-2.29-9.76-3-6.03-1.12-11.58-4.09-16.4-8.13,3.73,24.73,10.36,49.42,19.99,74.04,18.88,48.3,56.32,77.38,105,92.18Z"/><path class="cls-1" d="m237.62,192.26c8.23.6,16.52.15,24.78.15.04.43.07.86.1,1.28,21.31-2.2,42.63-4.31,63.92-6.64,13.91-1.52,21.12-12.88,16.68-26.03-.41-1.21-1.6-2.88-2.65-3.05-5.61-.96-11.59-3.03-16.88-1.95-25.48,5.18-50.85,10.87-76.02,17.33-5.2,1.33-10.15,6.04-13.8,10.38-3.89,4.62-2.17,8.08,3.85,8.53Z"/><path class="cls-1" d="m400.68,254.75c10-.19,19.99-.06,29.98-.06,26.3-1.18,52.62-1.82,78.3-8.7,5.61-1.51,8.82-6.14,8.38-13.12-.36-5.74-4-8.19-9.2-8.68-6.13-.59-12.28-1.3-18.43-1.24-25.08.23-50.15.72-75.22,1.18-2.1.04-4.22.45-6.29.86-16.16,3.25-18.22,8.34-14.75,24.39.88,4.09,3.19,5.45,7.23,5.37Z"/><path class="cls-1" d="m245.91,257.16c30.57.23,61.16.17,91.73-.18,2.78-.03,7.08-2.32,8.03-4.64,4.42-10.81-2.79-22.75-14.47-24.27-9.88-1.29-19.88-1.78-29.82-2.62-23.54-.59-46.68,1.98-69.4,8.07-7.15,1.91-8.16,3.93-5.93,11.02,2.62,8.35,8.48,12.54,19.88,12.62Z"/><path class="cls-1" d="m230.97,135.68c16.29-2.02,32.62-4.8,49.01-6.42,11.19-1.11,22.49-1.04,33.71-1.93,15.96-1.26,31.7-3.94,46.2-11.09,5.65-2.79,11.07-6.37,15.94-10.4,7.12-5.89,5.28-13.62-3.47-16.42-10.29-3.3-20.56-3.13-30.64.63-11.93,4.44-23.89,8.29-36.66,9.92-11.9,1.51-22.54.29-32.38,7.64-17.81,13.28-18.58,13.02-39.72,7.09,3.42-8.63,5.44-17.71,10.26-24.92,5.16-7.72,12.01-15.11,19.76-20.15,15.55-10.12,32.83-9.81,51.69-11.89,12.75-1.4,25.05-6.51,37.77-8.49,14.63-2.27,29.65-4.48,43.65,3.33,1.83,1.01,4.36,2.12,4.95,3.76,2.02,5.6,6.74,7.77,11.25,10.54,18.77,11.51,23.03,30.68,8.97,49.69,6.4,5.41,14.33,6.23,21.97,6.35,11.24.18,22.52-.46,33.72-1.48,17.51-1.59,33.96,2.21,50.64,7.09,29.7,8.68,43.04,23.53,45.78,55.33,1.62,18.84,2.49,37.76,2.97,56.66.21,7.86-2.96,15.08-10.03,19.63-5.88,3.8-10.84,8.31-15.17,13.95-6.41,8.4-15.47,11.71-26.14,12.33-38.44,2.24-76.84,4.98-115.25,7.55-7.22.48-14.43.99-21.64,1.58-6.37.52-7.91,2.93-5.49,8.81,3.66,8.82,11.68,11.03,19.84,11.44,39.34,1.97,78.68,3.33,117.96-1.37,19.57-2.34,38.43-6.8,56.03-15.91,17.13-8.86,27.14-21.91,25.87-42.26-.62-9.75-.06-19.58.23-29.37.06-1.87,1.34-3.71,2.06-5.57,1.93.98,6.94,1.98,8.53,2.98,7.41,4.79,15.06,9.24,22.45,13.97,3.34,2.14,7.48,5.22,10.54,8.39,2.66-45.99-4.67-92.1-22.17-138.03-18.61-48.84-56.09-78.46-105-93.79C485.62,4.71,452.01-.1,418.28,0c-33.73-.11-67.33,4.71-100.69,14.85-48.67,14.8-86.12,43.88-105,92.18-4.82,12.32-8.88,24.66-12.21,37.01,2.21-1.41,5.27-2.69,9.72-3.85,6.61-2.19,13.47-3.6,20.86-4.51Z"/><path class="cls-1" d="m565.72,531.85c-1.68,1-3.82,1.8-6.41,2.41-7.33,1.45-12.75,3.7-16.27,6.76-1.76,1.6-3.58,2.4-5.49,2.4-2.37,0-3.67-1.26-3.9-3.78.15-.84,1.79-2.22,4.92-4.13,3.44-2.07,8.33-3.89,14.67-5.5,5.58-.84,8.94-2.78,10.08-5.84.69-1.6,1.76-2.41,3.22-2.41,2.74,0,4.12,1.37,4.12,4.13,10.32.3,15.47,2.94,15.47,7.9,0,3.37-3.2,5.47-9.62,6.31-2.14.3-3.78.61-4.93.92,4.73,0,9.31.34,13.75,1.03,6.88,1.22,10.31,4.08,10.31,8.59,0,5.27-5.42,7.9-16.27,7.9-1.45,0-2.67-.15-3.67-.45v5.5c.46,0,1.07-.15,1.83-.45h16.72c4.43.3,6.64,5.65,6.64,16.04-.15,8.25-1.14,12.68-2.97,13.29-.39,1.46-7.34,2.18-20.85,2.18h-1.15c.15,1.6.23,2.71.23,3.32,0,2.75-1.07,4.13-3.2,4.13-2.75,0-4.13-2.48-4.13-7.45v-3.09h-5.38v3.55c.99,4.36,5.2,7.26,12.61,8.71,7.26,1.91,12.22,3.59,14.9,5.04,6.34,3.13,9.51,7.13,9.51,12.02,0,2.06-1.12,3.1-3.33,3.1-1.9,0-3.25-1.03-4.01-3.1-.38-.99-.95-2.37-1.72-4.12-.84-1.6-2.18-2.83-4.01-3.67-3.29-1.91-8.18-3.58-14.66-5.04-10.85-2.21-16.54-6.38-17.08-12.49v-4.01h-4.12c-.39,3.66-1.3,5.65-2.75,5.95-.23,1.45-3.48,2.18-9.74,2.18-1.91,0-3.09-1.03-3.55-3.1.61-1.29,1.49-2.1,2.63-2.4,3.29,0,5.15-.11,5.62-.35.69,0,1.14-.76,1.38-2.29-3.44.3-6.73.46-9.85.46-1.76,0-2.79-1.07-3.1-3.2,0-1.23.96-2.14,2.86-2.75h10.2c-.3-1.31-.88-1.95-1.72-1.95h-6.18c-1.53,0-2.37-.72-2.52-2.18.31-1.61,1.42-2.41,3.32-2.41,3.97-.23,6.57-.34,7.8-.34,3.36.23,5.27,2.52,5.72,6.88h4.01c.08-4.59.19-9.32.35-14.21h-3.78c-.46,3.06-1.38,4.74-2.75,5.04-.23,1.22-3.74,1.83-10.54,1.83-1.91,0-3.09-.95-3.55-2.87.61-1.14,1.49-2.02,2.64-2.63,3.74,0,5.88-.16,6.41-.46.53,0,.92-.3,1.15-.91h-12.26c-1.76,0-2.75-.92-2.98-2.75,0-1.53.96-2.64,2.86-3.33h12.72c-.23-1.14-.81-1.72-1.72-1.72h-6.99c-1.53,0-2.37-.76-2.52-2.29.3-1.61,1.42-2.4,3.33-2.4,4.35-.23,7.22-.34,8.59-.34,3.44.23,5.42,2.48,5.96,6.76h3.55c.08-2.37.15-4.78.23-7.22h-1.95c-11.76,0-17.72-2.48-17.87-7.44.23-5.12,3.63-8.14,10.19-9.05,4.2-.69,9.71-1.03,16.5-1.03.38-2.06,3.09-3.6,8.14-4.59,4.5-.61,6.76-1.49,6.76-2.64,0-.91-3.59-1.37-10.77-1.37-.69,0-1.22-.19-1.61-.58Zm-9.16,15.24c-8.1.61-12.27,1.65-12.49,3.09,0,2.22,4.12,3.32,12.37,3.32.08-2.22.12-4.35.12-6.42Zm6.87,38.96h5.38v-14.21h-5.15c-.08,1.22-.12,2.55-.12,4-.07,3.06-.11,6.45-.11,10.2Zm.35-20.28h5.04v-18.68h-4.7v.46c-.15,6.72-.26,12.79-.34,18.22Zm11.91-12.71c8.17,0,12.26-.81,12.26-2.41,0-1.46-4.09-2.48-12.26-3.09v5.5Zm0,35.28h.12c9.69,0,15.35-.15,16.96-.46,1.14,0,1.72-2.9,1.72-8.71,0-6.5-.66-9.74-1.95-9.74-6.03.31-11.42.45-16.16.45h-.69v18.45Zm8.82-5.5c-.61.61-1.22,1.19-1.83,1.72-1.38,1.6-2.48,2.41-3.32,2.41-1.45,0-2.48-.81-3.09-2.41,0-.31.45-.88,1.37-1.72,1.31-1.29,2.44-2.4,3.44-3.32-1.07-1.15-2.18-2.02-3.32-2.63-1.22-1-1.83-1.64-1.83-1.95.3-1.45,1.45-2.33,3.44-2.63.84,0,2.02.61,3.56,1.83.68.23,1.33.65,1.95,1.26.84-.61,1.72-1.33,2.63-2.18.84-1.22,1.76-1.83,2.75-1.83,1.99.31,2.98,1.07,2.98,2.29,0,.31-1.15,1.68-3.43,4.13-.46.31-.88.61-1.26.92.22.31.46.57.69.8,1.29,1.3,2.29,2.25,2.98,2.86.69.92,1.03,1.49,1.03,1.72,0,2.21-1.25,3.32-3.78,3.32-.69,0-1.18-.3-1.49-.92-.31-.3-.57-.65-.8-1.03-.61-.92-1.49-1.8-2.64-2.64Z"/><path class="cls-1" d="m549.93,652.46c3.67,0,8.21.27,13.64.8,2.67.31,4.01,1.42,4.01,3.32,0,2.38-1.34,3.56-4.01,3.56-3.82,0-8.44-.16-13.86-.47-3.29,0-7.19.35-11.69,1.04-2.67,0-4.17-1.38-4.47-4.13,0-1.3,1.18-2.4,3.55-3.32,2.75-.23,7.03-.49,12.83-.8Zm11.57-12.95c2.37.31,3.56,1.57,3.56,3.78,0,1.83-1.19,2.91-3.56,3.21h-20.74c-1.76,0-2.75-1.22-2.98-3.67,0-1.61,1.64-2.72,4.93-3.33h18.79Zm-10.09,25.67c2.82,0,6.38.35,10.66,1.03,2.37.3,3.56,1.18,3.56,2.63,0,2.22-1.18,3.32-3.56,3.32-3.05,0-6.72-.15-11-.46-2.52,0-5.5.31-8.94.92-2.37,0-3.67-1.26-3.9-3.78,0-.84,1.03-1.72,3.1-2.63,2.06-.31,5.42-.65,10.08-1.03Zm-.11,11.11c2.82,0,6.34.31,10.54.92,2.45.3,3.67,1.19,3.67,2.63,0,2.14-1.22,3.21-3.67,3.21h-10.88c-2.44,0-5.38.15-8.82.46-2.37,0-3.67-1.23-3.9-3.67,0-.92,1.07-1.8,3.2-2.63,1.99-.31,5.28-.61,9.86-.92Zm-5.38,18.22h11.91l.12-3.55c.53-1.61,1.72-2.67,3.55-3.21,2.75,0,4.12,1.22,4.12,3.66l-.12,22.35c0,7.11-4.54,10.66-13.64,10.66s-13.1-3.86-13.17-11.57l-.35-21.88c.69-2.45,1.96-3.67,3.78-3.67,2.37,0,3.63,1.22,3.78,3.67v3.55Zm11.91,6.53l-11.91.46.11,10.55c.15,3.59,2.1,5.39,5.84,5.39s5.85-1.65,5.85-4.93l.11-11.46Zm32.89-61.53c3.21.31,5.58,1.26,7.11,2.86,1.83,1.77,2.75,3.86,2.75,6.3v6.99c-.46,5.42-3.1,8.14-7.91,8.14h-8.59c-3.97.3-6.3,1.98-6.99,5.04l-.46,11c0,3.74,1.53,6.49,4.59,8.25,4.58,2.52,7.98,4.51,10.2,5.96,9.16,6.72,13.75,19.71,13.75,38.96,0,3.36-1.38,5.04-4.12,5.04-2.07,0-3.17-1.68-3.32-5.04,0-15.51-3.86-26.31-11.58-32.42-3.21-2.14-6.23-4.16-9.06-6.07-5.34-2.68-8.02-7.56-8.02-14.67.15-4.59.43-8.4.81-11.46,1.22-6.95,5.88-10.58,13.98-10.89h5.95c2.3,0,3.44-1.26,3.44-3.78,0-4.5-1.91-6.76-5.73-6.76h-12.95c-2.6,0-3.97-1.1-4.12-3.32,0-2.44,2.56-3.82,7.68-4.13h12.6Z"/><path class="cls-1" d="m87.09,626.17l-29.54-1.53,1.36-11.36h55.71v56.94c-3.03,1.32-6.76,2.68-11.2,4.09-4.43,1.41-9.22,2.68-14.39,3.79-5.14,1.11-10.47,2.04-15.97,2.8-5.49.76-10.82,1.13-15.96,1.13-10.31,0-19.09-1.75-26.34-5.29-7.28-3.54-13.2-8.48-17.73-14.84-4.56-6.35-7.86-14-9.91-22.94-2.09-8.92-3.12-18.85-3.12-29.76s1.79-20.68,5.33-29.37c3.54-8.68,8.57-16.05,15.07-22.11,6.5-6.06,14.23-10.69,23.22-13.93,8.97-3.23,18.86-4.85,29.68-4.85,2.72,0,5.73.11,9.02.3,3.26.2,6.53.46,9.77.76,3.22.31,6.27.69,9.13,1.14,2.89.45,5.23.93,7.04,1.44l-4.53,20.28c-2.23-.69-5.04-1.44-8.47-2.18-3.43-.77-7.05-1.44-10.83-2.05-3.8-.61-7.56-1.1-11.29-1.52-3.74-.4-7.07-.6-9.98-.6-4.86,0-9.41.37-13.71,1.12-4.29.77-8.22,2.56-11.73,5.39-1.93,1.51-3.5,3.91-4.77,7.19-1.27,3.28-2.26,7.03-2.96,11.28-.7,4.24-1.19,8.79-1.43,13.63-.26,4.87-.37,9.6-.37,14.24,0,18.68,2.32,32.97,6.95,42.85,4.63,9.9,11.93,14.86,21.91,14.86,2.51,0,5.17-.11,7.98-.3,2.82-.2,5.59-.49,8.31-.83,2.72-.35,5.26-.73,7.63-1.14,2.37-.4,4.42-.8,6.13-1.21v-37.4Z"/><path class="cls-1" d="m318.39,630.85c0,6.97-1.29,13.56-3.85,19.76-2.58,6.21-6.39,11.65-11.44,16.28-5.04,4.65-11.34,8.32-18.85,11.05-7.51,2.73-16.23,4.08-26.11,4.08-8.19,0-15.56-.86-22.11-2.56-6.55-1.72-12.19-4.53-16.88-8.42-4.7-3.88-8.31-8.96-10.83-15.22-2.54-6.26-3.81-13.93-3.81-23.02v-92.37h26.96v95.11c0,6.96.61,12.49,1.83,16.58,1.22,4.09,3.03,7.25,5.45,9.46,2.41,2.22,5.42,3.66,9.02,4.32,3.57.65,7.7.98,12.33.98,5.75,0,10.68-.61,14.77-1.82,4.08-1.21,7.49-2.82,10.23-4.86,2.82-2,4.58-5.19,5.28-9.53.7-4.33,1.06-9.59,1.06-15.75v-94.5h26.95v90.4Z"/><path class="cls-1" d="m437.96,680.07h-26.93v-139.62h26.93v139.62Z"/><path class="cls-1" d="m719.69,669.61c0,14.45-3.36,26.02-10.07,34.75-6.72,8.73-16.75,15.37-30.06,19.92l-4.56-8.64c3.64-2.22,6.62-4.69,8.95-7.42,2.33-2.73,4.11-5.67,5.38-8.85,1.27-3.19,2.14-6.57,2.65-10.15.49-3.59.76-7.4.76-11.43v-137.35h26.95v129.17Z"/><path class="cls-1" d="m839.28,680.08h-26.95v-139.63h26.95v139.63Z"/></svg>