<svg xmlns="http://www.w3.org/2000/svg" viewBox="0 0 105.5 84.65"><title>peaktea_logo</title><path d="M545.71,341a6.37,6.37,0,0,0-3.2.48c-1.78.7-3.56,1.49-5.29,2.27l-3.05,1.34c-4.66,2-7.67,5.95-9.2,12.09a19.5,19.5,0,0,0-.59,6.24,12.72,12.72,0,0,1,.7,1.12,11.89,11.89,0,0,0,4.26,5.07,18,18,0,0,1,4.29,5.25c.46.76.92,1.54,1.38,2.32a25.06,25.06,0,0,0,8.32,2.14c5.3.1,8.71-1.35,12.3-3.14s5.67-4.66,6.62-9.07c.17-.77.31-1.54.46-2.31.26-1.38.53-2.8.91-4.17,1.52-5.54,0-10.29-4.65-14.55C555.36,342.77,550.64,341.78,545.71,341Z" transform="translate(-458.69 -340.94)" fill="#c1531b"/><polygon points="51.34 72.1 51.34 72.1 51.34 72.1 51.34 72.1" fill="#1b432f"/><path d="M557.52,414.51c-.74-3.82-.82-4-2.85-7.47a7.89,7.89,0,0,1-.46-.92,3,3,0,0,0-.65-1.09,18.8,18.8,0,0,0-2.28-1.4,12.75,12.75,0,0,1-4-3,10.81,10.81,0,0,1-1.38-2.49,6.52,6.52,0,0,0-1.51-2.48,15.38,15.38,0,0,0-1.71-1.26c-.34-.23-.67-.45-1-.69-4-2.93-6.58-7.38-9.06-11.68-.35-.61-.68-1.2-1-1.78l-.57-.93c-.13-.23-.27-.46-.41-.69l-.19-.31a15.58,15.58,0,0,0-3.65-4.46,16.88,16.88,0,0,1-2.42-2.1,11.73,11.73,0,0,1-1.25-1.63c-.34-.53-.68-1.12-1-1.8l-.08-.14c-1.11-2.14-5.28-7-7.23-6.51a6,6,0,0,1-2.54,0c-1-.17-1.75-.29-2.45.28a2,2,0,0,1-2.4,0,1.3,1.3,0,0,0-1.36-.18c-.38.18-.77.35-1.15.51-1.67.73-3.11,1.35-4,2.84-.63,1.11-1.23,2.33-1.75,3.41a45,45,0,0,1-2.26,4.28c-1.24,2-2.67,3.94-4.05,5.81l-.12.15c-.54.74-1.08,1.47-1.61,2.21-.29.4-.57.81-.84,1.22a20.84,20.84,0,0,1-2.38,3.09,24.84,24.84,0,0,1-2.64,2.22c-.71.54-1.43,1.09-2.06,1.67a18.13,18.13,0,0,0-1.5,1.64,15,15,0,0,1-2.14,2.23c-1.09.87-2.25,1.65-3.38,2.41a41.13,41.13,0,0,0-4,2.93,26.1,26.1,0,0,0-2.87,3.14c-.66.82-1.35,1.67-2.11,2.46l-.46.43h.23c-.45.39-.87.8-1.31,1.18-.59.49-1.18,1-1.75,1.51l-.24.22c-2.26,2-4.6,4.16-4.87,7.42a12.61,12.61,0,0,0,.35,4.65,7.33,7.33,0,0,0,1.4,2.28c.27.34.54.68.77,1,.09.13.13.16.15.17l1.35.46c1.21.41,2.46.84,3.72,1.14l.52.13c4,1,7.74,1.87,11.41-.36l3.42-2.07a6.74,6.74,0,0,0,1.06-.75,6.15,6.15,0,0,0,1.28-2.17,16.61,16.61,0,0,1,5.44-6.07c6.89-4.29,10.29-10.92,13.88-17.93.58-1.13,1.16-2.26,1.76-3.39a13.83,13.83,0,0,0,.81-2,16.34,16.34,0,0,1,.84-2.07c.15-.29.29-.58.43-.88s.43-.88.67-1.31a2.63,2.63,0,0,1,.81-1,1.31,1.31,0,0,1,.84-.13,1.07,1.07,0,0,0,.25,0h.43v.44c0,.19,0,.4-.06.61a1.9,1.9,0,0,0,0,1c.49,1,1.06,1.87,1.66,2.83a36.33,36.33,0,0,1,1.93,3.34,9,9,0,0,0,.71,1.27,7.59,7.59,0,0,0,.65.77l.4.45a17.87,17.87,0,0,1,1.43,2.08l3.39,5.51a31.54,31.54,0,0,1,2.71,5.07l.11.31c.08.21.19.39.27.59l-.19.07.19-.07a4.76,4.76,0,0,0,.29.65,10,10,0,0,0,2.51,2.35,15,15,0,0,1,2,1.73c.33.35.65.71,1,1.07a17,17,0,0,0,3.68,3.42c1.79,1.11,3.64,2.26,5.53,3.28l1.07.59a11.08,11.08,0,0,0,3.89,1.64l.13,0a6.1,6.1,0,0,0,1.64.48c.31,0,.62.08.93.13,1.38.22,2.68.42,4-.59a17,17,0,0,1,4.51-2.26c.66-.26,1.35-.52,2-.81a1.65,1.65,0,0,0,.11-.19c.27-.55.54-1.12.8-1.68l.42-.9a4.19,4.19,0,0,1,.29-.49l.14-.23a8,8,0,0,0-.36-.82A5.77,5.77,0,0,1,557.52,414.51Z" transform="translate(-458.69 -340.94)" fill="#41695b"/></svg>